<svg xmlns="http://www.w3.org/2000/svg" xmlns:xlink="http://www.w3.org/1999/xlink" version="1.1" width="256" height="256" viewBox="0 0 256 256" xml:space="preserve">
<g style="stroke: none; stroke-width: 0; stroke-dasharray: none; stroke-linecap: butt; stroke-linejoin: miter; stroke-miterlimit: 10; fill: none; fill-rule: nonzero; opacity: 1;" transform="translate(1.4065934065934016 1.4065934065934016) scale(2.81 2.81)">
	<path d="M 52.801 45.405 c -0.201 0 -0.403 -0.061 -0.576 -0.183 L 45 40.134 l -7.226 5.088 c -0.35 0.249 -0.82 0.243 -1.168 -0.012 c -0.346 -0.254 -0.491 -0.702 -0.36 -1.111 l 2.691 -8.398 l -7.06 -5.196 c -0.348 -0.256 -0.492 -0.707 -0.357 -1.117 s 0.518 -0.688 0.95 -0.688 h 8.739 l 2.843 -8.459 C 44.189 19.834 44.57 19.56 45 19.56 s 0.811 0.274 0.948 0.682 l 2.843 8.459 h 8.739 c 0.432 0 0.815 0.277 0.95 0.688 s -0.01 0.861 -0.357 1.118 l -7.061 5.195 l 2.69 8.398 c 0.131 0.409 -0.014 0.856 -0.36 1.111 C 53.217 45.34 53.009 45.405 52.801 45.405 z" style="stroke: none; stroke-width: 1; stroke-dasharray: none; stroke-linecap: butt; stroke-linejoin: miter; stroke-miterlimit: 10; fill: rgb(250,180,0); fill-rule: nonzero; opacity: 1;" transform=" matrix(1 0 0 1 0 0) " stroke-linecap="round"/>
	<path d="M 41.938 36.313 l -7.06 -5.196 C 34.529 30.861 34.385 30.41 34.52 30 s 0.518 -0.688 0.95 -0.688 h 8.739 l 2.394 -7.122 l -0.655 -1.949 C 45.811 19.834 45.43 19.56 45 19.56 s -0.811 0.274 -0.948 0.682 l -2.843 8.459 H 32.47 c -0.432 0 -0.815 0.277 -0.95 0.688 s 0.009 0.861 0.357 1.117 l 7.06 5.196 L 36.247 44.1 c -0.131 0.409 0.014 0.856 0.36 1.111 c 0.348 0.255 0.818 0.26 1.168 0.012 l 1.69 -1.19 L 41.938 36.313 z" style="stroke: none; stroke-width: 1; stroke-dasharray: none; stroke-linecap: butt; stroke-linejoin: miter; stroke-miterlimit: 10; fill: rgb(211,144,0); fill-rule: nonzero; opacity: 1;" transform=" matrix(1 0 0 1 0 0) " stroke-linecap="round"/>
	<path d="M 21.331 45.405 c -0.201 0 -0.403 -0.061 -0.576 -0.183 l -7.225 -5.088 l -7.226 5.088 c -0.35 0.249 -0.82 0.243 -1.168 -0.012 c -0.346 -0.254 -0.491 -0.702 -0.36 -1.111 l 2.691 -8.398 l -7.06 -5.196 c -0.348 -0.256 -0.492 -0.707 -0.357 -1.117 S 0.568 28.701 1 28.701 h 8.739 l 2.843 -8.459 c 0.137 -0.407 0.518 -0.682 0.948 -0.682 s 0.811 0.274 0.948 0.682 l 2.843 8.459 h 8.739 c 0.432 0 0.815 0.277 0.95 0.688 s -0.01 0.861 -0.357 1.118 l -7.061 5.195 l 2.69 8.398 c 0.131 0.409 -0.014 0.856 -0.36 1.111 C 21.747 45.34 21.539 45.405 21.331 45.405 z" style="stroke: none; stroke-width: 1; stroke-dasharray: none; stroke-linecap: butt; stroke-linejoin: miter; stroke-miterlimit: 10; fill: rgb(250,180,0); fill-rule: nonzero; opacity: 1;" transform=" matrix(1 0 0 1 0 0) " stroke-linecap="round"/>
	<path d="M 10.467 36.313 l -7.06 -5.196 C 3.059 30.861 2.915 30.41 3.05 30 S 3.568 29.312 4 29.312 h 8.739 l 2.394 -7.122 l -0.655 -1.949 c -0.137 -0.407 -0.518 -0.682 -0.948 -0.682 s -0.811 0.274 -0.948 0.682 l -2.843 8.459 H 1 c -0.432 0 -0.815 0.277 -0.95 0.688 s 0.009 0.861 0.357 1.117 l 7.06 5.196 L 4.777 44.1 c -0.131 0.409 0.014 0.856 0.36 1.111 c 0.348 0.255 0.818 0.26 1.168 0.012 l 1.69 -1.19 L 10.467 36.313 z" style="stroke: none; stroke-width: 1; stroke-dasharray: none; stroke-linecap: butt; stroke-linejoin: miter; stroke-miterlimit: 10; fill: rgb(211,144,0); fill-rule: nonzero; opacity: 1;" transform=" matrix(1 0 0 1 0 0) " stroke-linecap="round"/>
	<path d="M 84.27 45.405 c -0.201 0 -0.403 -0.061 -0.576 -0.183 l -7.225 -5.088 l -7.226 5.088 c -0.35 0.249 -0.82 0.243 -1.168 -0.012 c -0.346 -0.254 -0.491 -0.702 -0.36 -1.111 l 2.691 -8.398 l -7.06 -5.196 c -0.348 -0.256 -0.492 -0.707 -0.357 -1.117 s 0.518 -0.688 0.95 -0.688 h 8.739 l 2.843 -8.459 c 0.137 -0.407 0.518 -0.682 0.948 -0.682 s 0.811 0.274 0.948 0.682 l 2.843 8.459 H 89 c 0.432 0 0.815 0.277 0.95 0.688 s -0.01 0.861 -0.357 1.118 l -7.061 5.195 l 2.69 8.398 c 0.131 0.409 -0.014 0.856 -0.36 1.111 C 84.686 45.34 84.478 45.405 84.27 45.405 z" style="stroke: none; stroke-width: 1; stroke-dasharray: none; stroke-linecap: butt; stroke-linejoin: miter; stroke-miterlimit: 10; fill: rgb(250,180,0); fill-rule: nonzero; opacity: 1;" transform=" matrix(1 0 0 1 0 0) " stroke-linecap="round"/>
	<path d="M 73.407 36.313 l -7.06 -5.196 C 65.999 30.861 65.855 30.41 65.99 30 s 0.518 -0.688 0.95 -0.688 h 8.739 l 2.394 -7.122 l -0.655 -1.949 c -0.137 -0.407 -0.518 -0.682 -0.948 -0.682 s -0.811 0.274 -0.948 0.682 l -2.843 8.459 H 63.94 c -0.432 0 -0.815 0.277 -0.95 0.688 s 0.009 0.861 0.357 1.117 l 7.06 5.196 L 67.716 44.1 c -0.131 0.409 0.014 0.856 0.36 1.111 c 0.348 0.255 0.818 0.26 1.168 0.012 l 1.69 -1.19 L 73.407 36.313 z" style="stroke: none; stroke-width: 1; stroke-dasharray: none; stroke-linecap: butt; stroke-linejoin: miter; stroke-miterlimit: 10; fill: rgb(211,144,0); fill-rule: nonzero; opacity: 1;" transform=" matrix(1 0 0 1 0 0) " stroke-linecap="round"/>
	<path d="M 37.066 70.44 c -0.201 0 -0.403 -0.061 -0.576 -0.183 l -7.225 -5.088 l -7.226 5.088 c -0.35 0.249 -0.82 0.243 -1.168 -0.012 c -0.346 -0.254 -0.491 -0.702 -0.36 -1.111 l 2.691 -8.398 l -7.06 -5.196 c -0.348 -0.256 -0.492 -0.707 -0.357 -1.117 s 0.518 -0.688 0.95 -0.688 h 8.739 l 2.843 -8.459 c 0.137 -0.407 0.518 -0.682 0.948 -0.682 s 0.811 0.274 0.948 0.682 l 2.843 8.459 h 8.739 c 0.432 0 0.815 0.277 0.95 0.688 s -0.01 0.861 -0.357 1.118 l -7.061 5.195 l 2.69 8.398 c 0.131 0.409 -0.014 0.856 -0.36 1.111 C 37.482 70.375 37.274 70.44 37.066 70.44 z" style="stroke: none; stroke-width: 1; stroke-dasharray: none; stroke-linecap: butt; stroke-linejoin: miter; stroke-miterlimit: 10; fill: rgb(250,180,0); fill-rule: nonzero; opacity: 1;" transform=" matrix(1 0 0 1 0 0) " stroke-linecap="round"/>
	<path d="M 26.203 61.348 l -7.06 -5.196 c -0.348 -0.256 -0.492 -0.707 -0.357 -1.117 s 0.518 -0.688 0.95 -0.688 h 8.739 l 2.394 -7.122 l -0.655 -1.949 c -0.137 -0.407 -0.518 -0.682 -0.948 -0.682 s -0.811 0.274 -0.948 0.682 l -2.843 8.459 h -8.739 c -0.432 0 -0.815 0.277 -0.95 0.688 s 0.009 0.861 0.357 1.117 l 7.06 5.196 l -2.691 8.398 c -0.131 0.409 0.014 0.856 0.36 1.111 c 0.348 0.255 0.818 0.26 1.168 0.012 l 1.69 -1.19 L 26.203 61.348 z" style="stroke: none; stroke-width: 1; stroke-dasharray: none; stroke-linecap: butt; stroke-linejoin: miter; stroke-miterlimit: 10; fill: rgb(211,144,0); fill-rule: nonzero; opacity: 1;" transform=" matrix(1 0 0 1 0 0) " stroke-linecap="round"/>
	<path d="M 68.536 70.44 c -0.201 0 -0.403 -0.061 -0.576 -0.183 l -7.225 -5.088 l -7.226 5.088 c -0.35 0.249 -0.82 0.243 -1.168 -0.012 c -0.346 -0.254 -0.491 -0.702 -0.36 -1.111 l 2.691 -8.398 l -7.06 -5.196 c -0.348 -0.256 -0.492 -0.707 -0.357 -1.117 s 0.518 -0.688 0.95 -0.688 h 8.739 l 2.843 -8.459 c 0.137 -0.407 0.518 -0.682 0.948 -0.682 s 0.811 0.274 0.948 0.682 l 2.843 8.459 h 8.739 c 0.432 0 0.815 0.277 0.95 0.688 s -0.01 0.861 -0.357 1.118 l -7.061 5.195 l 2.69 8.398 c 0.131 0.409 -0.014 0.856 -0.36 1.111 C 68.952 70.375 68.744 70.44 68.536 70.44 z" style="stroke: none; stroke-width: 1; stroke-dasharray: none; stroke-linecap: butt; stroke-linejoin: miter; stroke-miterlimit: 10; fill: rgb(250,180,0); fill-rule: nonzero; opacity: 1;" transform=" matrix(1 0 0 1 0 0) " stroke-linecap="round"/>
	<path d="M 57.672 61.348 l -7.06 -5.196 c -0.348 -0.256 -0.492 -0.707 -0.357 -1.117 s 0.518 -0.688 0.95 -0.688 h 8.739 l 2.394 -7.122 l -0.655 -1.949 c -0.137 -0.407 -0.518 -0.682 -0.948 -0.682 s -0.811 0.274 -0.948 0.682 l -2.843 8.459 h -8.739 c -0.432 0 -0.815 0.277 -0.95 0.688 s 0.009 0.861 0.357 1.117 l 7.06 5.196 l -2.691 8.398 c -0.131 0.409 0.014 0.856 0.36 1.111 c 0.348 0.255 0.818 0.26 1.168 0.012 l 1.69 -1.19 L 57.672 61.348 z" style="stroke: none; stroke-width: 1; stroke-dasharray: none; stroke-linecap: butt; stroke-linejoin: miter; stroke-miterlimit: 10; fill: rgb(211,144,0); fill-rule: nonzero; opacity: 1;" transform=" matrix(1 0 0 1 0 0) " stroke-linecap="round"/>
</g>
</svg>