<?xml version="1.0" encoding="utf-8"?>
<!-- Generator: Adobe Illustrator 27.5.0, SVG Export Plug-In . SVG Version: 6.00 Build 0)  -->
<svg version="1.1" id="Layer_1" xmlns="http://www.w3.org/2000/svg" xmlns:xlink="http://www.w3.org/1999/xlink" x="0px" y="0px"
	 viewBox="0 0 288 287.999" style="enable-background:new 0 0 288 287.999;" xml:space="preserve">
<g>
	<rect x="-0.001" y="0" style="fill-rule:evenodd;clip-rule:evenodd;fill:#F7F7F7;" width="288.001" height="287.999"/>
	<g>
		<g>
			<polygon style="fill:#00808F;" points="95.624,86.248 90.164,83.497 84.68,86.2 85.608,80.157 81.342,75.776 87.377,74.791 
				90.225,69.38 93.025,74.815 99.052,75.852 94.748,80.196 			"/>
			<polygon style="fill:#00808F;" points="122.526,86.248 117.065,83.497 111.581,86.2 112.509,80.157 108.243,75.776 
				114.278,74.791 117.127,69.38 119.926,74.815 125.954,75.852 121.651,80.196 			"/>
			<polygon style="fill:#00808F;" points="149.427,86.248 143.967,83.497 138.482,86.2 139.411,80.157 135.144,75.776 
				141.18,74.791 144.028,69.38 146.828,74.815 152.855,75.852 148.551,80.196 			"/>
			<polygon style="fill:#00808F;" points="176.329,86.248 170.868,83.497 165.383,86.2 166.312,80.157 162.046,75.776 
				168.081,74.791 170.929,69.38 173.729,74.815 179.756,75.852 175.453,80.196 			"/>
			<polygon style="fill:#00808F;" points="203.23,86.248 197.769,83.497 192.286,86.2 193.213,80.157 188.948,75.776 
				194.982,74.791 197.831,69.38 200.63,74.815 206.658,75.852 202.354,80.196 			"/>
		</g>
		<g>
			<polygon style="fill:#00808F;" points="95.624,112.722 90.164,109.971 84.68,112.674 85.608,106.631 81.342,102.25 
				87.377,101.266 90.225,95.854 93.025,101.29 99.052,102.326 94.748,106.67 			"/>
			<polygon style="fill:#00808F;" points="122.526,112.722 117.065,109.971 111.581,112.674 112.509,106.631 108.243,102.25 
				114.278,101.266 117.127,95.854 119.926,101.29 125.954,102.326 121.651,106.67 			"/>
			<polygon style="fill:#00808F;" points="149.427,112.722 143.967,109.971 138.482,112.674 139.411,106.631 135.144,102.25 
				141.18,101.266 144.028,95.854 146.828,101.29 152.855,102.326 148.551,106.67 			"/>
			<polygon style="fill:#00808F;" points="176.329,112.722 170.868,109.971 165.383,112.674 166.312,106.631 162.046,102.25 
				168.081,101.266 170.929,95.854 173.729,101.29 179.756,102.326 175.453,106.67 			"/>
			<path style="fill:#00808F;" d="M197.822,97.935l1.954,3.795l0.22,0.426l0.473,0.081l4.209,0.724l-3.005,3.033l-0.338,0.34
				l0.069,0.474l0.611,4.227l-3.813-1.921l-0.428-0.215l-0.43,0.211l-3.829,1.888l0.648-4.22l0.072-0.474l-0.334-0.343l-2.979-3.059
				l4.215-0.688l0.472-0.077l0.224-0.424L197.822,97.935 M197.831,95.854l-2.849,5.411l-6.034,0.985l4.266,4.38l-0.928,6.043
				l5.483-2.703l5.461,2.751l-0.876-6.052l4.304-4.344l-6.027-1.037L197.831,95.854L197.831,95.854z"/>
		</g>
		<g>
			<polygon style="fill:#00808F;" points="95.624,139.196 90.164,136.445 84.68,139.149 85.608,133.105 81.342,128.725 
				87.377,127.74 90.225,122.329 93.025,127.764 99.052,128.8 94.748,133.144 			"/>
			<polygon style="fill:#00808F;" points="122.526,139.196 117.065,136.445 111.581,139.149 112.509,133.105 108.243,128.725 
				114.278,127.74 117.127,122.329 119.926,127.764 125.954,128.8 121.651,133.144 			"/>
			<polygon style="fill:#00808F;" points="149.427,139.196 143.967,136.445 138.482,139.149 139.411,133.105 135.144,128.725 
				141.18,127.74 144.028,122.329 146.828,127.764 152.855,128.8 148.551,133.144 			"/>
			<path style="fill:#00808F;" d="M170.92,124.409l1.955,3.794l0.219,0.426l0.473,0.081l4.209,0.724l-3.005,3.034l-0.337,0.34
				l0.068,0.474l0.611,4.227l-3.814-1.921l-0.428-0.216l-0.429,0.212l-3.831,1.888l0.649-4.22l0.072-0.474l-0.334-0.342l-2.98-3.059
				l4.215-0.688l0.472-0.077l0.224-0.423L170.92,124.409 M170.929,122.329l-2.849,5.411l-6.034,0.985l4.266,4.38l-0.929,6.044
				l5.484-2.704l5.461,2.751l-0.876-6.052l4.304-4.344l-6.027-1.037L170.929,122.329L170.929,122.329z"/>
			<path style="fill:#00808F;" d="M197.822,124.409l1.954,3.794l0.22,0.426l0.473,0.081l4.209,0.724l-3.005,3.033l-0.338,0.34
				l0.069,0.474l0.611,4.227l-3.813-1.921l-0.428-0.216l-0.43,0.212l-3.829,1.888l0.648-4.22l0.072-0.474l-0.334-0.342l-2.979-3.059
				l4.215-0.688l0.472-0.077l0.224-0.423L197.822,124.409 M197.831,122.329l-2.849,5.411l-6.034,0.985l4.266,4.38l-0.928,6.044
				l5.483-2.704l5.461,2.751l-0.876-6.052l4.304-4.344l-6.027-1.037L197.831,122.329L197.831,122.329z"/>
		</g>
		<g>
			<polygon style="fill:#00808F;" points="95.624,165.67 90.164,162.919 84.68,165.623 85.608,159.579 81.342,155.199 
				87.377,154.214 90.225,148.803 93.025,154.238 99.052,155.274 94.748,159.619 			"/>
			<polygon style="fill:#00808F;" points="122.526,165.67 117.065,162.919 111.581,165.623 112.509,159.579 108.243,155.199 
				114.278,154.214 117.127,148.803 119.926,154.238 125.954,155.274 121.651,159.619 			"/>
			<path style="fill:#00808F;" d="M144.018,150.883l1.956,3.795l0.219,0.426l0.473,0.082l4.209,0.723l-3.006,3.034l-0.337,0.34
				l0.069,0.474l0.611,4.226l-3.813-1.921l-0.429-0.216l-0.429,0.212l-3.83,1.888l0.648-4.22l0.072-0.474l-0.334-0.343l-2.98-3.059
				l4.215-0.688l0.473-0.077l0.223-0.423L144.018,150.883 M144.028,148.803l-2.848,5.411l-6.036,0.985l4.267,4.38l-0.929,6.044
				l5.485-2.704l5.46,2.751l-0.876-6.052l4.304-4.344l-6.027-1.036L144.028,148.803L144.028,148.803z"/>
			<path style="fill:#00808F;" d="M170.92,150.883l1.955,3.795l0.219,0.426l0.473,0.082l4.209,0.723l-3.006,3.034l-0.336,0.34
				l0.068,0.474l0.611,4.226l-3.814-1.921l-0.428-0.216l-0.429,0.212l-3.831,1.888l0.649-4.22l0.072-0.474l-0.334-0.342l-2.98-3.059
				l4.215-0.688l0.472-0.077l0.224-0.423L170.92,150.883 M170.929,148.803l-2.849,5.411l-6.034,0.985l4.266,4.38l-0.929,6.044
				l5.484-2.704l5.461,2.751l-0.876-6.052l4.304-4.344l-6.027-1.036L170.929,148.803L170.929,148.803z"/>
			<path style="fill:#00808F;" d="M197.822,150.883l1.954,3.795l0.22,0.426l0.473,0.082l4.209,0.723l-3.005,3.034l-0.338,0.34
				l0.069,0.474l0.611,4.226l-3.813-1.921l-0.428-0.216l-0.43,0.212l-3.829,1.888l0.648-4.22l0.072-0.474l-0.334-0.342l-2.979-3.059
				l4.215-0.688l0.472-0.077l0.224-0.423L197.822,150.883 M197.831,148.803l-2.849,5.411l-6.034,0.985l4.266,4.38l-0.928,6.044
				l5.483-2.704l5.461,2.751l-0.876-6.052l4.304-4.344l-6.027-1.036L197.831,148.803L197.831,148.803z"/>
		</g>
		<g>
			<polygon style="fill:#00808F;" points="95.624,192.144 90.164,189.394 84.68,192.097 85.608,186.053 81.342,181.673 
				87.377,180.688 90.225,175.277 93.025,180.712 99.052,181.749 94.748,186.093 			"/>
			<path style="fill:#00808F;" d="M117.117,177.357l1.955,3.795l0.22,0.426l0.472,0.082l4.21,0.724l-3.005,3.034l-0.337,0.34
				l0.068,0.474l0.611,4.226l-3.813-1.921l-0.428-0.216l-0.43,0.212l-3.829,1.888l0.648-4.22l0.072-0.473l-0.333-0.343l-2.979-3.059
				l4.214-0.688l0.473-0.077l0.224-0.423L117.117,177.357 M117.127,175.277l-2.849,5.411l-6.035,0.985l4.267,4.38l-0.929,6.044
				l5.484-2.704l5.461,2.751l-0.875-6.052l4.303-4.344l-6.027-1.037L117.127,175.277L117.127,175.277z"/>
			<path style="fill:#00808F;" d="M144.018,177.357l1.956,3.795l0.219,0.426l0.473,0.082l4.209,0.724l-3.005,3.034l-0.338,0.34
				l0.069,0.474l0.611,4.226l-3.813-1.921l-0.429-0.216l-0.429,0.212l-3.83,1.888l0.648-4.22l0.072-0.473l-0.334-0.343l-2.98-3.059
				l4.215-0.688l0.473-0.077l0.223-0.423L144.018,177.357 M144.028,175.277l-2.848,5.411l-6.036,0.985l4.267,4.38l-0.929,6.044
				l5.485-2.704l5.46,2.751l-0.876-6.052l4.304-4.344l-6.027-1.037L144.028,175.277L144.028,175.277z"/>
			<path style="fill:#00808F;" d="M170.92,177.357l1.955,3.795l0.219,0.426l0.473,0.082l4.209,0.724l-3.005,3.034l-0.338,0.34
				l0.069,0.474l0.611,4.226l-3.814-1.921l-0.428-0.216l-0.429,0.212l-3.831,1.888l0.649-4.22l0.072-0.473l-0.334-0.343l-2.98-3.059
				l4.215-0.688l0.472-0.077l0.224-0.423L170.92,177.357 M170.929,175.277l-2.849,5.411l-6.034,0.985l4.266,4.38l-0.929,6.044
				l5.484-2.704l5.461,2.751l-0.876-6.052l4.304-4.344l-6.027-1.037L170.929,175.277L170.929,175.277z"/>
			<path style="fill:#00808F;" d="M197.822,177.357l1.954,3.795l0.22,0.426l0.473,0.082l4.209,0.724l-3.005,3.033l-0.338,0.34
				l0.069,0.474l0.611,4.226l-3.813-1.921l-0.428-0.216l-0.43,0.212l-3.829,1.888l0.648-4.22l0.072-0.473l-0.334-0.343l-2.979-3.059
				l4.215-0.688l0.472-0.077l0.224-0.423L197.822,177.357 M197.831,175.277l-2.849,5.411l-6.034,0.985l4.266,4.38l-0.928,6.044
				l5.483-2.704l5.461,2.751l-0.876-6.052l4.304-4.344l-6.027-1.037L197.831,175.277L197.831,175.277z"/>
		</g>
		<g>
			<path style="fill:#00808F;" d="M90.216,203.832l1.954,3.795l0.22,0.426l0.472,0.081l4.209,0.724l-3.005,3.033l-0.337,0.34
				l0.069,0.474l0.611,4.226l-3.813-1.921l-0.428-0.215l-0.43,0.212l-3.829,1.888l0.647-4.22l0.072-0.474l-0.333-0.342l-2.979-3.06
				l4.215-0.688l0.472-0.077l0.224-0.423L90.216,203.832 M90.225,201.751l-2.849,5.411l-6.034,0.985l4.266,4.38l-0.928,6.044
				l5.483-2.704l5.461,2.751l-0.876-6.051l4.304-4.344l-6.027-1.037L90.225,201.751L90.225,201.751z"/>
			<path style="fill:#00808F;" d="M117.117,203.832l1.955,3.795l0.22,0.426l0.472,0.081l4.21,0.724l-3.005,3.034l-0.337,0.34
				l0.068,0.474l0.611,4.226l-3.813-1.921l-0.428-0.215l-0.43,0.212l-3.829,1.888l0.648-4.22l0.072-0.474l-0.333-0.342l-2.979-3.06
				l4.214-0.688l0.473-0.077l0.224-0.423L117.117,203.832 M117.127,201.751l-2.849,5.411l-6.035,0.985l4.267,4.38l-0.929,6.044
				l5.484-2.704l5.461,2.751l-0.875-6.051l4.303-4.344l-6.027-1.037L117.127,201.751L117.127,201.751z"/>
			<path style="fill:#00808F;" d="M144.018,203.832l1.956,3.795l0.219,0.426l0.473,0.081l4.209,0.724l-3.005,3.034l-0.338,0.34
				l0.069,0.474l0.611,4.226l-3.813-1.921l-0.429-0.215l-0.429,0.212l-3.83,1.888l0.648-4.22l0.072-0.474l-0.334-0.343l-2.98-3.059
				l4.215-0.688l0.473-0.077l0.223-0.423L144.018,203.832 M144.028,201.751l-2.848,5.411l-6.036,0.985l4.267,4.38l-0.929,6.044
				l5.485-2.704l5.46,2.751l-0.876-6.051l4.304-4.344l-6.027-1.037L144.028,201.751L144.028,201.751z"/>
			<path style="fill:#00808F;" d="M170.92,203.832l1.955,3.795l0.219,0.426l0.473,0.081l4.209,0.724l-3.005,3.034l-0.338,0.34
				l0.069,0.474l0.611,4.226l-3.814-1.921l-0.428-0.215l-0.429,0.212l-3.831,1.888l0.649-4.22l0.072-0.473l-0.334-0.343l-2.98-3.06
				l4.215-0.688l0.472-0.077l0.224-0.423L170.92,203.832 M170.929,201.751l-2.849,5.411l-6.034,0.985l4.266,4.38l-0.929,6.044
				l5.484-2.704l5.461,2.751l-0.876-6.051l4.304-4.344l-6.027-1.037L170.929,201.751L170.929,201.751z"/>
			<path style="fill:#00808F;" d="M197.822,203.832l1.954,3.795l0.22,0.426l0.473,0.081l4.209,0.724l-3.005,3.033l-0.338,0.34
				l0.069,0.474l0.611,4.226l-3.813-1.921l-0.428-0.215l-0.43,0.212l-3.829,1.888l0.648-4.22l0.072-0.474l-0.334-0.342l-2.979-3.06
				l4.215-0.688l0.472-0.077l0.224-0.423L197.822,203.832 M197.831,201.751l-2.849,5.411l-6.034,0.985l4.266,4.38l-0.928,6.044
				l5.483-2.704l5.461,2.751l-0.876-6.051l4.304-4.344l-6.027-1.037L197.831,201.751L197.831,201.751z"/>
		</g>
	</g>
</g>
</svg>
